<svg width="149" height="18" viewBox="0 0 149 18" fill="none" xmlns="http://www.w3.org/2000/svg">
<path d="M0.200012 17V0.799956H7.20001V3.21996H3.78001V7.29996H6.76001V9.79996H3.78001V17H0.200012Z" fill="black"/>
<path d="M8.77423 17V0.799956H16.0542V3.23996H12.3542V7.25996H15.1742V9.73996H12.3542V14.58H16.0942V17H8.77423Z" fill="black"/>
<path d="M17.7195 17V0.799956H22.1795C23.2729 0.799956 24.2195 0.919956 25.0195 1.15996C25.8195 1.39996 26.4395 1.83329 26.8795 2.45996C27.3329 3.07329 27.5595 3.94662 27.5595 5.07996C27.5595 5.74662 27.5062 6.33996 27.3995 6.85996C27.2929 7.37996 27.0929 7.83329 26.7995 8.21996C26.5195 8.59329 26.1129 8.90662 25.5795 9.15996L27.7995 17H24.0995L22.3195 9.73996H21.2995V17H17.7195ZM21.2995 7.67996H22.2995C22.8062 7.67996 23.1995 7.59329 23.4795 7.41996C23.7595 7.23329 23.9529 6.97329 24.0595 6.63996C24.1795 6.29329 24.2395 5.87996 24.2395 5.39996C24.2395 4.70662 24.1129 4.16662 23.8595 3.77996C23.6062 3.39329 23.1395 3.19996 22.4595 3.19996H21.2995V7.67996Z" fill="black"/>
<path d="M29.6336 17V0.799956H32.1536L35.4736 8.59996V0.799956H38.4336V17H36.0136L32.6936 8.59996V17H29.6336Z" fill="black"/>
<path d="M40.0645 17L43.1245 0.799956H47.2045L50.2245 17H46.9245L46.3845 13.58H44.0045L43.4445 17H40.0645ZM44.3245 11.44H46.0445L45.1845 5.11996L44.3245 11.44Z" fill="black"/>
<path d="M51.7039 17V0.799956H54.2239L57.5439 8.59996V0.799956H60.5039V17H58.0839L54.7639 8.59996V17H51.7039Z" fill="black"/>
<path d="M62.9149 17V0.799956H67.0149C68.4282 0.799956 69.5282 0.979956 70.3149 1.33996C71.1015 1.68662 71.6549 2.23996 71.9749 2.99996C72.2949 3.74662 72.4549 4.71996 72.4549 5.91996V11.8C72.4549 13.0133 72.2949 14.0066 71.9749 14.78C71.6549 15.54 71.1015 16.1 70.3149 16.46C69.5415 16.82 68.4549 17 67.0549 17H62.9149ZM66.4949 14.52H67.0549C67.6015 14.52 67.9949 14.44 68.2349 14.28C68.4749 14.12 68.6215 13.88 68.6749 13.56C68.7415 13.24 68.7749 12.84 68.7749 12.36V5.29996C68.7749 4.81996 68.7349 4.43329 68.6549 4.13996C68.5882 3.84662 68.4349 3.63329 68.1949 3.49996C67.9549 3.36662 67.5682 3.29996 67.0349 3.29996H66.4949V14.52Z" fill="black"/>
<path d="M79.2736 17.24C78.0603 17.24 77.1003 17.0266 76.3936 16.6C75.6869 16.1733 75.1803 15.56 74.8736 14.76C74.5669 13.96 74.4136 13.0066 74.4136 11.9V5.87996C74.4136 4.75996 74.5669 3.80662 74.8736 3.01996C75.1803 2.23329 75.6869 1.63329 76.3936 1.21996C77.1003 0.79329 78.0603 0.579956 79.2736 0.579956C80.5003 0.579956 81.4669 0.79329 82.1736 1.21996C82.8936 1.63329 83.4069 2.23329 83.7136 3.01996C84.0203 3.80662 84.1736 4.75996 84.1736 5.87996V11.9C84.1736 13.0066 84.0203 13.96 83.7136 14.76C83.4069 15.56 82.8936 16.1733 82.1736 16.6C81.4669 17.0266 80.5003 17.24 79.2736 17.24ZM79.2736 14.7C79.6469 14.7 79.9203 14.6066 80.0936 14.42C80.2669 14.2333 80.3803 13.9933 80.4336 13.7C80.4869 13.4066 80.5136 13.1066 80.5136 12.8V4.99996C80.5136 4.67996 80.4869 4.37996 80.4336 4.09996C80.3803 3.80662 80.2669 3.56662 80.0936 3.37996C79.9203 3.19329 79.6469 3.09996 79.2736 3.09996C78.9269 3.09996 78.6669 3.19329 78.4936 3.37996C78.3203 3.56662 78.2069 3.80662 78.1536 4.09996C78.1003 4.37996 78.0736 4.67996 78.0736 4.99996V12.8C78.0736 13.1066 78.0936 13.4066 78.1336 13.7C78.1869 13.9933 78.2936 14.2333 78.4536 14.42C78.6269 14.6066 78.9003 14.7 79.2736 14.7Z" fill="black"/>
<path d="M86.0724 17V13.92H89.1524V17H86.0724Z" fill="black"/>
<path d="M92.5352 17L90.5752 0.799956H93.6152L94.5752 10.24L95.7952 0.819957H98.1752L99.4552 10.18L100.435 0.799956H103.435L101.495 17H98.3752L96.9952 7.21996L95.6952 17H92.5352Z" fill="black"/>
<path d="M109.781 17.24C108.568 17.24 107.608 17.0266 106.901 16.6C106.195 16.1733 105.688 15.56 105.381 14.76C105.075 13.96 104.921 13.0066 104.921 11.9V5.87996C104.921 4.75996 105.075 3.80662 105.381 3.01996C105.688 2.23329 106.195 1.63329 106.901 1.21996C107.608 0.79329 108.568 0.579956 109.781 0.579956C111.008 0.579956 111.975 0.79329 112.681 1.21996C113.401 1.63329 113.915 2.23329 114.221 3.01996C114.528 3.80662 114.681 4.75996 114.681 5.87996V11.9C114.681 13.0066 114.528 13.96 114.221 14.76C113.915 15.56 113.401 16.1733 112.681 16.6C111.975 17.0266 111.008 17.24 109.781 17.24ZM109.781 14.7C110.155 14.7 110.428 14.6066 110.601 14.42C110.775 14.2333 110.888 13.9933 110.941 13.7C110.995 13.4066 111.021 13.1066 111.021 12.8V4.99996C111.021 4.67996 110.995 4.37996 110.941 4.09996C110.888 3.80662 110.775 3.56662 110.601 3.37996C110.428 3.19329 110.155 3.09996 109.781 3.09996C109.435 3.09996 109.175 3.19329 109.001 3.37996C108.828 3.56662 108.715 3.80662 108.661 4.09996C108.608 4.37996 108.581 4.67996 108.581 4.99996V12.8C108.581 13.1066 108.601 13.4066 108.641 13.7C108.695 13.9933 108.801 14.2333 108.961 14.42C109.135 14.6066 109.408 14.7 109.781 14.7Z" fill="black"/>
<path d="M116.86 17V0.799956H121.32C122.414 0.799956 123.36 0.919956 124.16 1.15996C124.96 1.39996 125.58 1.83329 126.02 2.45996C126.474 3.07329 126.7 3.94662 126.7 5.07996C126.7 5.74662 126.647 6.33996 126.54 6.85996C126.434 7.37996 126.234 7.83329 125.94 8.21996C125.66 8.59329 125.254 8.90662 124.72 9.15996L126.94 17H123.24L121.46 9.73996H120.44V17H116.86ZM120.44 7.67996H121.44C121.947 7.67996 122.34 7.59329 122.62 7.41996C122.9 7.23329 123.094 6.97329 123.2 6.63996C123.32 6.29329 123.38 5.87996 123.38 5.39996C123.38 4.70662 123.254 4.16662 123 3.77996C122.747 3.39329 122.28 3.19996 121.6 3.19996H120.44V7.67996Z" fill="black"/>
<path d="M128.774 17V0.799956H132.354V7.41996L135.074 0.799956H138.574L135.574 8.11996L138.714 17H135.074L132.734 9.83996L132.354 10.48V17H128.774Z" fill="black"/>
<path d="M144.09 17.24C143.077 17.24 142.23 17.06 141.55 16.7C140.87 16.34 140.357 15.7866 140.01 15.04C139.663 14.28 139.47 13.3 139.43 12.1L142.49 11.64C142.503 12.3333 142.563 12.8933 142.67 13.32C142.79 13.7466 142.95 14.0533 143.15 14.24C143.363 14.4266 143.617 14.52 143.91 14.52C144.283 14.52 144.523 14.3933 144.63 14.14C144.75 13.8866 144.81 13.62 144.81 13.34C144.81 12.6733 144.65 12.1133 144.33 11.66C144.01 11.1933 143.577 10.7266 143.03 10.26L141.63 9.03996C141.017 8.51996 140.497 7.93329 140.07 7.27996C139.657 6.61329 139.45 5.79329 139.45 4.81996C139.45 3.44662 139.857 2.39996 140.67 1.67996C141.483 0.946623 142.59 0.579956 143.99 0.579956C144.857 0.579956 145.55 0.726623 146.07 1.01996C146.603 1.31329 147.003 1.69996 147.27 2.17996C147.55 2.64662 147.737 3.14662 147.83 3.67996C147.937 4.19996 147.997 4.69996 148.01 5.17996L144.93 5.55996C144.917 5.07996 144.883 4.66662 144.83 4.31996C144.79 3.95996 144.697 3.68662 144.55 3.49996C144.403 3.29996 144.177 3.19996 143.87 3.19996C143.537 3.19996 143.29 3.33996 143.13 3.61996C142.983 3.89996 142.91 4.17996 142.91 4.45996C142.91 5.05996 143.05 5.55329 143.33 5.93996C143.623 6.31329 144.003 6.70662 144.47 7.11996L145.81 8.29996C146.517 8.89996 147.11 9.57996 147.59 10.34C148.083 11.1 148.33 12.04 148.33 13.16C148.33 13.92 148.157 14.6133 147.81 15.24C147.463 15.8533 146.97 16.34 146.33 16.7C145.703 17.06 144.957 17.24 144.09 17.24Z" fill="black"/>
</svg>
